<svg width="62" height="62" viewBox="0 0 62 62" fill="none" xmlns="http://www.w3.org/2000/svg">
<circle cx="30.6904" cy="31.3037" r="29.4089" fill="#F5F5F5" stroke="#212222" stroke-width="2.55729"/>
<path d="M30.8333 44.122C29.3808 44.122 28.0305 43.856 26.7826 43.3241C25.5551 42.7922 24.4912 42.0557 23.5911 41.1146C22.7114 40.1531 22.0669 39.0381 21.6578 37.7697L25.1254 36.266C25.6778 37.5753 26.4757 38.6085 27.5191 39.3654C28.5624 40.1019 29.7388 40.4702 31.0481 40.4702C31.7846 40.4702 32.4188 40.3576 32.9508 40.1326C33.5031 39.8871 33.9225 39.5598 34.2089 39.1506C34.5158 38.7414 34.6693 38.2504 34.6693 37.6776C34.6693 37.0025 34.4647 36.4501 34.0555 36.0205C33.6668 35.5704 33.0735 35.2226 32.2756 34.9771L27.8873 33.5655C26.1074 33.0131 24.7674 32.1845 23.8673 31.0798C22.9671 29.975 22.517 28.6759 22.517 27.1825C22.517 25.8731 22.8341 24.7172 23.4683 23.7148C24.123 22.7123 25.0231 21.9349 26.1688 21.3825C27.3349 20.8097 28.6647 20.5233 30.1582 20.5233C31.5289 20.5233 32.7871 20.7688 33.9328 21.2598C35.0784 21.7303 36.0604 22.3952 36.8788 23.2545C37.7175 24.0933 38.3415 25.0855 38.7507 26.2312L35.3137 27.7655C34.8636 26.6199 34.1885 25.7402 33.2883 25.1264C32.3881 24.4922 31.3448 24.1751 30.1582 24.1751C29.4626 24.1751 28.8489 24.2978 28.3169 24.5433C27.785 24.7684 27.3656 25.0957 27.0588 25.5253C26.7723 25.9345 26.6291 26.4255 26.6291 26.9983C26.6291 27.6326 26.8337 28.1952 27.2429 28.6862C27.652 29.1567 28.276 29.525 29.1148 29.7909L33.319 31.1105C35.1398 31.7038 36.5003 32.5221 37.4004 33.5655C38.3211 34.6088 38.7814 35.8977 38.7814 37.4321C38.7814 38.7414 38.4438 39.8973 37.7687 40.8998C37.0936 41.9022 36.1627 42.6899 34.9761 43.2627C33.7895 43.8356 32.4086 44.122 30.8333 44.122Z" fill="#212222"/>
</svg>
