<svg width="42" height="42" viewBox="0 0 42 42" fill="none" xmlns="http://www.w3.org/2000/svg">
<path d="M20.9421 41.35C23.6232 41.35 26.2781 40.8219 28.7552 39.7959C31.2322 38.7698 33.483 37.2659 35.3788 35.3701C37.2747 33.4742 38.7786 31.2235 39.8046 28.7464C40.8306 26.2694 41.3587 23.6145 41.3587 20.9333C41.3587 18.2522 40.8306 15.5973 39.8046 13.1202C38.7786 10.6431 37.2747 8.39242 35.3788 6.49656C33.483 4.6007 31.2322 3.09681 28.7552 2.07078C26.2781 1.04475 23.6232 0.516655 20.9421 0.516655C15.5272 0.516655 10.3342 2.66769 6.50529 6.49656C2.67643 10.3254 0.525391 15.5185 0.525391 20.9333C0.525391 26.3482 2.67643 31.5412 6.50529 35.3701C10.3342 39.199 15.5272 41.35 20.9421 41.35ZM20.9421 3.91943C22.2147 3.91943 23.9195 5.13082 25.4099 8.40429C25.7298 9.11434 26.0247 9.88791 26.2946 10.725H15.5895C15.837 9.93419 16.1325 9.15919 16.4742 8.40429C17.9646 5.13082 19.6728 3.91943 20.9421 3.91943ZM13.3777 6.99554C12.8627 8.1298 12.417 9.37295 12.0404 10.725H7.33095C9.12402 8.33235 11.516 6.45448 14.2658 5.28054C13.9429 5.83788 13.6465 6.41019 13.3777 6.99554ZM11.2884 14.1278C10.9138 16.3768 10.7283 18.6533 10.7337 20.9333C10.7337 23.3119 10.9277 25.6053 11.2884 27.7389H5.34372C4.40855 25.5919 3.92664 23.2751 3.92817 20.9333C3.92817 18.5139 4.43178 16.2103 5.34372 14.1278H11.2884ZM12.0404 31.1417C12.417 32.4937 12.8627 33.7368 13.3777 34.8711C13.6476 35.4655 13.9425 36.0371 14.2624 36.5861C11.5138 35.4117 9.12308 33.5338 7.33095 31.1417H12.0404ZM15.5895 31.1417H26.2946C26.0471 31.9325 25.7516 32.7075 25.4099 33.4623C23.9195 36.7358 22.2113 37.9472 20.9421 37.9472C19.6694 37.9472 17.9646 36.7358 16.4742 33.4623C16.1325 32.7075 15.837 31.9325 15.5895 31.1417ZM27.1385 27.7389H14.749C14.3378 25.4938 14.1327 23.2158 14.1365 20.9333C14.1365 18.5037 14.3543 16.2035 14.7456 14.1278H27.1351C27.5264 16.2035 27.7442 18.5037 27.7442 20.9333C27.7442 23.3629 27.5264 25.6632 27.1351 27.7389M29.8403 31.1417H34.5532C32.7601 33.5343 30.3682 35.4122 27.6183 36.5861C27.9427 36.0371 28.2376 35.4655 28.503 34.8711C29.0225 33.7368 29.4694 32.4937 29.8437 31.1417M36.5404 27.7389H30.5957C30.9703 25.4898 31.1558 23.2133 31.1504 20.9333C31.1504 18.5548 30.9564 16.2647 30.5957 14.1278H36.5404C37.4523 16.2103 37.9559 18.5139 37.9559 20.9333C37.9559 23.3527 37.4523 25.6564 36.5404 27.7389ZM27.6183 5.28054C30.3682 6.45448 32.7601 8.33235 34.5532 10.725H29.8437C29.4953 9.44906 29.0482 8.20216 28.5064 6.99554C28.2387 6.41025 27.9435 5.83795 27.6217 5.28054" fill="#A9A9A9"/>
</svg>
