<svg width="42" height="45" viewBox="0 0 42 45" fill="none" xmlns="http://www.w3.org/2000/svg">
<path d="M2.58496 19.025C2.58482 18.4298 2.71453 17.8417 2.96505 17.3018C3.21557 16.7619 3.58087 16.2831 4.03546 15.8989L18.3563 3.62598C19.0948 3.00181 20.0305 2.65936 20.9975 2.65936C21.9644 2.65936 22.9001 3.00181 23.6386 3.62598L37.9595 15.8989C38.4141 16.2831 38.7793 16.7619 39.0299 17.3018C39.2804 17.8417 39.4101 18.4298 39.41 19.025V37.4375C39.41 38.5226 38.9789 39.5634 38.2115 40.3307C37.4442 41.098 36.4035 41.5291 35.3183 41.5291H26.7258V24.7533H15.2691V41.5291H6.67663C5.59145 41.5291 4.55072 41.098 3.78338 40.3307C3.01605 39.5634 2.58496 38.5226 2.58496 37.4375V19.025Z" stroke="#212222" stroke-width="5.11458" stroke-linecap="round" stroke-linejoin="round"/>
</svg>
