<svg width="70" height="76" viewBox="0 0 70 76" fill="none" xmlns="http://www.w3.org/2000/svg">
<path d="M33.7867 53.8117C32.9053 53.5683 32.22 52.8729 31.9884 51.9869L31.5638 50.3637C31.1487 48.7761 32.6059 47.3343 34.1854 47.7698L64.1136 56.0238C65.9323 56.5253 66.2472 58.9744 64.6149 59.9214L62.7376 61.0102C62.143 61.3551 61.4347 61.4465 60.7722 61.2635L33.7867 53.8117Z" fill="#212222"/>
<path d="M36.591 64.5406C35.7055 64.2984 35.0168 63.6003 34.7856 62.7104L34.3569 61.0607C33.9447 59.4744 35.4003 58.0355 36.9782 58.4698L52.491 62.7395C54.3121 63.2407 54.6261 65.6941 52.99 66.6391L51.1116 67.7243C50.5194 68.0664 49.8155 68.1573 49.156 67.977L36.591 64.5406Z" fill="#212222"/>
<path d="M39.5867 75.077C38.2298 75.8677 36.4943 75.1436 36.0986 73.6218C35.6386 71.8528 37.261 70.2478 39.0209 70.7307C41.0496 71.2874 41.4051 74.0177 39.5867 75.077Z" fill="#212222"/>
<path d="M20.1051 44.9081C19.8749 44.0217 20.1333 43.0794 20.7835 42.4354L21.9744 41.2555C23.1392 40.1016 25.1143 40.645 25.5274 42.2331L33.3562 72.3244C33.832 74.1531 31.8722 75.6509 30.2375 74.708L28.3576 73.6239C27.7621 73.2805 27.329 72.7117 27.1559 72.0453L20.1051 44.9081Z" fill="#212222"/>
<path d="M12.2269 52.7091C11.9934 51.8198 12.2527 50.8733 12.9064 50.2277L14.1181 49.0309C15.2833 47.88 17.2552 48.4236 17.6685 50.0097L21.7337 65.6032C22.211 67.4338 20.2471 68.9328 18.6121 67.986L16.7348 66.8989C16.143 66.5562 15.7124 65.9909 15.5386 65.3287L12.2269 52.7091Z" fill="#212222"/>
<path d="M6.39405 60.9299C5.03213 60.148 4.79018 58.2803 5.90796 57.176C7.20715 55.8925 9.40597 56.4975 9.86842 58.2659C10.4015 60.3043 8.21886 61.9778 6.39405 60.9299Z" fill="#212222"/>
<path d="M20.9918 28.5861C21.643 27.9431 22.5867 27.6962 23.4686 27.9383L25.0839 28.3816C26.664 28.8151 27.1818 30.8003 26.0154 31.9529L3.91556 53.7913C2.57273 55.1183 0.297966 54.1669 0.295616 52.2773L0.292971 50.1044C0.292089 49.4158 0.567236 48.7558 1.05671 48.2724L20.9918 28.5861Z" fill="#212222"/>
<path d="M10.3064 25.6546C10.9585 25.0074 11.9063 24.759 12.7913 25.0033L14.4316 25.4562C16.0092 25.8917 16.5251 27.8742 15.3608 29.0259L3.91365 40.3495C2.56979 41.6788 0.291941 40.7244 0.292969 38.8324L0.294143 36.6602C0.294437 35.9753 0.567821 35.3191 1.05348 34.8373L10.3064 25.6546Z" fill="#212222"/>
<path d="M0.284192 24.7053C0.279198 23.1327 1.77289 21.9891 3.28627 22.4065C5.04541 22.8919 5.62171 25.1022 4.32442 26.3876C2.82867 27.8692 0.290803 26.8124 0.284192 24.7053Z" fill="#212222"/>
<path d="M35.5957 21.1889C36.4771 21.4321 37.1624 22.1276 37.3941 23.0135L37.8186 24.6368C38.2338 26.2244 36.7765 27.6662 35.197 27.2306L5.2688 18.9767C3.45016 18.4752 3.13521 16.026 4.76758 15.0792L6.64468 13.9903C7.23948 13.6453 7.9477 13.5541 8.61022 13.737L35.5957 21.1889Z" fill="#212222"/>
<path d="M32.79 10.4553C33.6755 10.6975 34.3642 11.3956 34.5954 12.2855L35.0241 13.9352C35.4363 15.5216 33.9806 16.9605 32.4028 16.5261L16.89 12.2566C15.0688 11.7552 14.7549 9.30195 16.3909 8.35679L18.2694 7.27163C18.8615 6.92964 19.5655 6.83856 20.2249 7.01896L32.79 10.4553Z" fill="#212222"/>
<path d="M28.5953 1.27824C29.9523 0.487657 31.6878 1.2117 32.0835 2.73346C32.5435 4.50244 30.9211 6.10749 29.1612 5.62463C27.1325 5.06787 26.777 2.33754 28.5953 1.27824Z" fill="#212222"/>
<path d="M49.2553 30.1741C49.4855 31.0605 49.2271 32.0027 48.5769 32.6468L47.3859 33.8265C46.2212 34.9806 44.2461 34.4372 43.8328 32.849L36.0042 2.75776C35.5284 0.929275 37.4882 -0.568533 39.1229 0.37428L41.0028 1.45843C41.5983 1.80194 42.0314 2.37072 42.2044 3.03703L49.2553 30.1756V30.1741Z" fill="#212222"/>
<path d="M57.1305 22.3649C57.3639 23.2544 57.1046 24.2009 56.4509 24.8465L55.2393 26.0433C54.074 27.1941 52.1022 26.6505 51.6888 25.0645L47.6236 9.47093C47.1463 7.64039 49.1102 6.14126 50.7453 7.08819L52.6225 8.17526C53.2144 8.51798 53.6449 9.08326 53.8187 9.74549L57.1305 22.3649Z" fill="#212222"/>
<path d="M62.9574 14.1523C64.3193 14.9343 64.5613 16.802 63.4435 17.9063C62.1443 19.1897 59.9455 18.5847 59.483 16.8164C58.9499 14.778 61.1324 13.1045 62.9574 14.1523Z" fill="#212222"/>
<path d="M48.3017 46.4717C47.6505 47.1147 46.7068 47.3616 45.8249 47.1195L44.2095 46.6762C42.6295 46.2425 42.1117 44.2574 43.278 43.1048L65.3778 21.2665C66.7206 19.9394 68.9954 20.8909 68.9978 22.7804L69.0004 24.9534C69.0013 25.6419 68.7261 26.302 68.2367 26.7854L48.3017 46.4717Z" fill="#212222"/>
<path d="M58.987 49.3994C58.3349 50.0466 57.3871 50.295 56.502 50.0507L54.8615 49.5978C53.2841 49.1623 52.7682 47.1798 53.9325 46.0281L65.3797 34.7045C66.7235 33.3752 69.0014 34.3296 69.0003 36.2216L68.9992 38.3938C68.9989 39.0785 68.7255 39.7349 68.2398 40.2167L58.987 49.3994Z" fill="#212222"/>
<path d="M69.0104 50.3566C69.0154 51.9292 67.5217 53.0728 66.0083 52.6552C64.2492 52.1698 63.6729 49.9597 64.9702 48.6743C66.4658 47.1927 69.0038 48.2493 69.0104 50.3566Z" fill="#212222"/>
</svg>
