<svg width="49" height="49" viewBox="0 0 49 49" fill="none" xmlns="http://www.w3.org/2000/svg">
<path d="M26.5413 12.25C26.5413 11.7085 26.3262 11.1892 25.9434 10.8063C25.5605 10.4234 25.0412 10.2083 24.4997 10.2083C23.9582 10.2083 23.4389 10.4234 23.056 10.8063C22.6731 11.1892 22.458 11.7085 22.458 12.25V22.4583H12.2497C11.7082 22.4583 11.1889 22.6734 10.806 23.0563C10.4231 23.4392 10.208 23.9585 10.208 24.5C10.208 25.0415 10.4231 25.5608 10.806 25.9437C11.1889 26.3265 11.7082 26.5416 12.2497 26.5416H22.458V36.75C22.458 37.2915 22.6731 37.8108 23.056 38.1937C23.4389 38.5765 23.9582 38.7916 24.4997 38.7916C25.0412 38.7916 25.5605 38.5765 25.9434 38.1937C26.3262 37.8108 26.5413 37.2915 26.5413 36.75V26.5416H36.7497C37.2912 26.5416 37.8105 26.3265 38.1934 25.9437C38.5762 25.5608 38.7913 25.0415 38.7913 24.5C38.7913 23.9585 38.5762 23.4392 38.1934 23.0563C37.8105 22.6734 37.2912 22.4583 36.7497 22.4583H26.5413V12.25Z" fill="black"/>
</svg>
