<svg width="30" height="46" viewBox="0 0 30 46" fill="none" xmlns="http://www.w3.org/2000/svg">
<path fill-rule="evenodd" clip-rule="evenodd" d="M0.676758 4.68281C0.676758 3.59763 1.10784 2.5569 1.87518 1.78957C2.64252 1.02223 3.68325 0.591145 4.76842 0.591145H25.2268C26.3119 0.591145 27.3527 1.02223 28.12 1.78957C28.8873 2.5569 29.3184 3.59763 29.3184 4.68281V8.48806C29.3182 10.1721 28.9023 11.83 28.1075 13.3146C27.3127 14.7993 26.1637 16.0648 24.7624 16.9987L18.6862 21.0495L24.7624 25.1002C26.1637 26.0342 27.3127 27.2997 28.1075 28.7843C28.9023 30.269 29.3182 31.9269 29.3184 33.6109V37.4161C29.3184 38.5013 28.8873 39.5421 28.12 40.3094C27.3527 41.0767 26.3119 41.5078 25.2268 41.5078H4.76842C3.68325 41.5078 2.64252 41.0767 1.87518 40.3094C1.10784 39.5421 0.676758 38.5013 0.676758 37.4161V33.6109C0.67673 31.9271 1.09237 30.2693 1.8868 28.7846C2.68123 27.3 3.82987 26.0344 5.23078 25.1002L11.311 21.0495L5.23487 16.9987C3.8332 16.065 2.68376 14.7996 1.8886 13.315C1.09345 11.8303 0.677179 10.1723 0.676758 8.48806V4.68281ZM14.9976 18.5904L22.4935 13.5924C23.3339 13.0322 24.0231 12.2732 24.4999 11.3828C24.9767 10.4924 25.2263 9.49809 25.2268 8.48806V4.68281H4.76842V8.48806C4.76883 9.49809 5.01851 10.4924 5.49529 11.3828C5.97208 12.2732 6.66124 13.0322 7.50166 13.5924L14.9976 18.5904ZM14.9976 23.5086L7.50166 28.5065C6.66124 29.0668 5.97208 29.8257 5.49529 30.7162C5.01851 31.6066 4.76883 32.6009 4.76842 33.6109V37.4161H25.2268V33.6109C25.2263 32.6009 24.9767 31.6066 24.4999 30.7162C24.0231 29.8257 23.3339 29.0668 22.4935 28.5065L14.9976 23.5086Z" fill="#A9A9A9"/>
</svg>
